<?xml version="1.0" encoding="UTF-8" standalone="no"?>
<svg
   width="368.96548"
   zoomAndPan="magnify"
   viewBox="0 0 276.72411 110.53956"
   height="147.38608"
   preserveAspectRatio="xMidYMid"
   version="1.0"
   id="svg354"
   sodipodi:docname="bfh_logo_big.svg"
   inkscape:version="1.2.2 (732a01da63, 2022-12-09)"
   xmlns:inkscape="http://www.inkscape.org/namespaces/inkscape"
   xmlns:sodipodi="http://sodipodi.sourceforge.net/DTD/sodipodi-0.dtd"
   xmlns="http://www.w3.org/2000/svg"
   xmlns:svg="http://www.w3.org/2000/svg">
  <sodipodi:namedview
     id="namedview354"
     pagecolor="#ffffff"
     bordercolor="#000000"
     borderopacity="0.25"
     inkscape:showpageshadow="2"
     inkscape:pageopacity="0.0"
     inkscape:pagecheckerboard="0"
     inkscape:deskcolor="#d1d1d1"
     showgrid="false"
     inkscape:zoom="3.2685984"
     inkscape:cx="111.82163"
     inkscape:cy="100.65476"
     inkscape:window-width="2560"
     inkscape:window-height="1017"
     inkscape:window-x="2552"
     inkscape:window-y="352"
     inkscape:window-maximized="1"
     inkscape:current-layer="svg354" />
  <defs
     id="defs4" />
  <g
     fill="#f3ac22"
     fill-opacity="1"
     id="g105"
     inkscape:export-filename="bfh-biig.png"
     inkscape:export-xdpi="96"
     inkscape:export-ydpi="96"
     transform="translate(-14.591026,-40.727703)">
    <g
       transform="translate(20.659813,107.95409)"
       id="g104">
      <g
         id="g103">
        <path
           d="m -1.453125,-34.125 c 3.519531,-3.53125 7.710937,-6.585938 12.578125,-9.171875 4.875,-2.59375 9,-4.207031 12.375,-4.84375 3.382812,-0.632813 6.175781,-0.78125 8.375,-0.4375 2.195312,0.34375 3.859375,0.996094 4.984375,1.953125 1.90625,1.625 2.988281,3.152344 3.25,4.578125 0.320313,1.710937 -0.492187,3.929687 -2.4375,6.65625 -0.992187,1.398437 -2.464844,3.011719 -4.421875,4.84375 l -0.609375,0.5 c -0.273437,0.148437 -0.390625,0.304687 -0.359375,0.46875 l 0.421875,0.234375 c 1.757813,0.367188 3.148437,0.929688 4.171875,1.6875 1.03125,0.75 1.710938,2.027344 2.046875,3.828125 0.457031,2.460937 -0.199219,5.011719 -1.96875,7.65625 -1.773437,2.636719 -4.015625,4.90625 -6.734375,6.8125 -2.710938,1.90625 -5.28125,3.5 -7.71875,4.78125 -2.429688,1.273437 -4.195312,2.011719 -5.296875,2.21875 -1.105469,0.199219 -2.121094,0.246094 -3.046875,0.140625 -0.929688,-0.101562 -1.699219,-0.296875 -2.3125,-0.578125 C 10.570312,-3.378906 9.625,-4.039062 9,-4.78125 8.800781,-4.957031 8.640625,-5.035156 8.515625,-5.015625 c -0.304687,0.054687 -0.679687,1.074219 -1.125,3.0625 C 6.941406,0.0351562 6.695312,1.03125 6.65625,1.03125 L 6.640625,0.953125 c -0.042969,0.445313 -0.210937,0.695313 -0.5,0.75 -0.667969,0.125 -1.417969,-0.375 -2.25,-1.5 C 3.054688,-0.910156 2.570312,-1.8125 2.4375,-2.5 2.3125,-3.1875 2.507812,-4.425781 3.03125,-6.21875 3.5625,-8.019531 4.140625,-9.585938 4.765625,-10.921875 l 0.90625,-1.96875 c 0.582031,-2.28125 3.734375,-7.382813 9.453125,-15.3125 5.726562,-7.925781 9.046875,-11.976563 9.953125,-12.15625 0.414063,-0.07031 0.785156,0 1.109375,0.21875 0.332031,0.21875 0.628906,0.585937 0.890625,1.09375 0.0625,0.34375 -0.07422,0.652344 -0.40625,0.921875 L 19.625,-26.96875 c -0.05469,0.1875 -0.07422,0.3125 -0.0625,0.375 0.0078,0.0625 0.08203,0.07813 0.21875,0.04687 0.90625,-0.164063 2.851562,-1.257813 5.84375,-3.28125 2.988281,-2.019531 5.820312,-4.335937 8.5,-6.953125 2.6875,-2.613281 3.90625,-4.59375 3.65625,-5.9375 -0.273438,-1.445312 -3.324219,-1.628906 -9.15625,-0.546875 -3.71875,0.699219 -7.308594,1.792969 -10.765625,3.28125 -3.449219,1.480469 -6.351563,3.03125 -8.703125,4.65625 -2.355469,1.625 -4.4375,3.257813 -6.25,4.890625 -1.804688,1.625 -3.113281,2.992188 -3.9375,4.09375 -0.820312,1.105469 -1.207031,1.78125 -1.15625,2.03125 0.042969,0.25 0.164062,0.355469 0.359375,0.3125 1.335937,-0.238281 3.398437,-1.363281 6.203125,-3.375 2.800781,-2.007812 4.488281,-3.316406 5.0625,-3.921875 0.570312,-0.613281 0.953125,-0.9375 1.140625,-0.96875 0.1875,-0.03906 0.363281,0.03906 0.53125,0.234375 -1.074219,2.824219 -2.792969,5.375 -5.15625,7.65625 -2.355469,2.273438 -4.28125,3.546875 -5.78125,3.828125 -1.5,0.28125 -2.851563,-0.09766 -4.0625,-1.140625 -1.21875,-1.050781 -1.910156,-2.035156 -2.078125,-2.953125 -0.519531,-2.789063 0.984375,-5.953125 4.515625,-9.484375 z m 36.859375,8.421875 c -0.08594,-0.414063 -0.414062,-0.695313 -0.984375,-0.84375 -0.5625,-0.15625 -1.121094,-0.207031 -1.671875,-0.15625 l -0.8125,0.15625 c -2.625,0.492187 -5.851562,1.699219 -9.671875,3.625 -1.3125,0.625 -2.136719,0.96875 -2.46875,1.03125 -0.335937,0.0625 -0.640625,-0.0039 -0.921875,-0.203125 -0.273438,-0.207031 -0.480469,-0.414062 -0.625,-0.625 -0.148438,-0.21875 -0.328125,-0.304688 -0.546875,-0.265625 -0.242187,0.04297 -0.480469,0.246094 -0.71875,0.609375 l -8.125,16.453125 v 0.0625 c 0.28125,0.335937 0.738281,0.445313 1.375,0.328125 l 0.734375,-0.140625 c 3.132812,-0.582031 6.707031,-2.140625 10.71875,-4.671875 4.019531,-2.539062 7.390625,-5.304688 10.109375,-8.296875 2.71875,-2.988281 3.921875,-5.34375 3.609375,-7.0625 z m 0,0"
           id="path102" />
      </g>
    </g>
  </g>
  <g
     fill="#f3ac22"
     fill-opacity="1"
     id="g108"
     transform="translate(-14.591026,-40.727703)">
    <g
       transform="translate(63.880535,99.886189)"
       id="g107">
      <g
         id="g106">
        <path
           d="m -4.765625,-29.90625 c -0.820313,-0.582031 -1.289063,-1.1875 -1.40625,-1.8125 -0.125,-0.632812 -0.023437,-1.140625 0.296875,-1.515625 0.3125,-0.382813 0.757812,-0.78125 1.328125,-1.1875 0.574219,-0.414063 1.195313,-0.820313 1.859375,-1.21875 0.65625,-0.40625 1.382812,-0.796875 2.171875,-1.171875 0.78125,-0.382812 1.453125,-0.722656 2.015625,-1.015625 1.5625,-0.757813 2.570312,-1.179687 3.03125,-1.265625 0.46875,-0.09375 0.71875,-0.05469 0.75,0.109375 0.03125,0.167969 -0.078125,0.40625 -0.328125,0.71875 -0.242187,0.304687 -0.355469,0.476563 -0.34375,0.515625 0.00781,0.04297 0.082031,0.04687 0.21875,0.01563 0.144531,-0.03125 0.335937,-0.109375 0.578125,-0.234375 7.6875,-3.164062 15.273438,-5.445312 22.765625,-6.84375 7.488281,-1.394531 12.898437,-1.15625 16.234375,0.71875 0.09375,0.07422 0.398438,0.257812 0.921875,0.546875 1.226563,0.8125 1.851563,1.28125 1.875,1.40625 0.07031,0.375 -0.324219,0.648437 -1.1875,0.8125 C 35.867188,-39.441406 27.53125,-37.519531 21,-35.5625 c -0.65625,0.125 -0.96875,0.289062 -0.9375,0.484375 0.01953,0.08594 0.191406,0.195313 0.515625,0.328125 0.332031,0.136719 0.53125,0.390625 0.59375,0.765625 0.07031,0.367187 -0.132813,0.773437 -0.609375,1.21875 l -6.59375,8.796875 c -0.292969,0.273438 -0.429688,0.480469 -0.40625,0.625 0.03125,0.148438 0.1875,0.195312 0.46875,0.140625 l 1,-0.3125 c 1.882812,-0.53125 3.679688,-0.953125 5.390625,-1.265625 6.257813,-1.164062 9.648437,-0.351562 10.171875,2.4375 0.03906,0.210938 0.03125,0.351562 -0.03125,0.421875 -0.05469,0.07422 -0.585938,0.242187 -1.59375,0.5 -1.011719,0.25 -4.34375,1.335937 -10,3.25 -5.65625,1.917969 -8.917969,3.109375 -9.78125,3.578125 -0.855469,0.460938 -1.484375,1.007812 -1.890625,1.640625 -4.0625,8.054687 -6.273437,12.9921875 -6.625,14.828125 -0.042969,0.00781 -0.054687,0.359375 -0.03125,1.046875 0.019531,0.695313 -0.011719,1.050781 -0.09375,1.0625 -0.375,0.070313 -1.191406,-0.15625 -2.453125,-0.6875 -1.257812,-0.523437 -1.941406,-1.074219 -2.046875,-1.65625 -0.113281,-0.585937 -0.144531,-1.15625 -0.09375,-1.71875 0.042969,-0.570313 0.117187,-1.222656 0.21875,-1.953125 0.09375,-0.726562 0.53125,-2.1875 1.3125,-4.375 0.78125,-2.195312 1.855469,-4.351562 3.21875,-6.46875 0.09375,-0.0078 0.125,-0.08594 0.09375,-0.234375 -0.023437,-0.15625 -0.371094,-0.65625 -1.046875,-1.5 -0.6875,-0.84375 -1.046875,-1.347656 -1.078125,-1.515625 -0.15625,-0.832031 0.039063,-1.414062 0.578125,-1.75 0.542969,-0.332031 2.203125,-1.023438 4.984375,-2.078125 L 5.03125,-20.21875 h 0.0625 c 0.320312,-0.0625 0.875,-0.671875 1.65625,-1.828125 5.394531,-6.945313 8.601562,-10.816406 9.625,-11.609375 0.375,-0.289062 0.546875,-0.5 0.515625,-0.625 -0.02344,-0.132812 -0.15625,-0.175781 -0.40625,-0.125 -0.25,0.04297 -0.453125,0.101562 -0.609375,0.171875 -6.898438,2.335937 -12.746094,3.949219 -17.546875,4.84375 -1.25,0.230469 -2.28125,0.05859 -3.09375,-0.515625 z m 0,0"
           id="path105" />
      </g>
    </g>
  </g>
  <g
     fill="#f3ac22"
     fill-opacity="1"
     id="g111"
     transform="translate(-14.591026,-40.727703)">
    <g
       transform="translate(91.526783,94.725531)"
       id="g110">
      <g
         id="g109">
        <path
           d="m 19.140625,-26.8125 6.171875,-1.859375 0.125,-0.03125 c 1.082031,-0.195313 1.914062,-0.71875 2.5,-1.5625 8.539062,-12.8125 14.304688,-20.53125 17.296875,-23.15625 0.28125,-0.3125 0.566406,-0.492187 0.859375,-0.546875 0.289062,-0.0625 0.535156,-0.02344 0.734375,0.109375 1.050781,0.5 1.59375,0.84375 1.625,1.03125 0.03906,0.1875 0.0078,0.355469 -0.09375,0.5 -8.898437,12.710937 -13.265625,19.480469 -13.109375,20.3125 0.03906,0.210937 0.222656,0.28125 0.546875,0.21875 2.519531,-0.425781 3.925781,-0.535156 4.21875,-0.328125 0.300781,0.199219 0.707031,0.292969 1.21875,0.28125 0.664063,-0.125 1.734375,-0.07031 3.203125,0.15625 1.46875,0.21875 2.273438,0.726562 2.421875,1.515625 0.03906,0.21875 -0.02734,0.375 -0.203125,0.46875 -0.167969,0.09375 -0.964844,0.382813 -2.390625,0.859375 -1.429687,0.480469 -3.261719,1.078125 -5.5,1.796875 -2.230469,0.71875 -4.011719,1.292969 -5.34375,1.71875 -1.324219,0.417969 -2.25,0.730469 -2.78125,0.9375 -0.523437,0.199219 -0.875,0.574219 -1.0625,1.125 -4.617187,9.074219 -7.742187,15.679687 -9.375,19.8125 0,0.480469 -0.210937,0.761719 -0.625,0.84375 -0.417969,0.074219 -0.921875,-0.242187 -1.515625,-0.953125 -0.585938,-0.707031 -0.964844,-1.539062 -1.140625,-2.5 -0.449219,-2.414062 1.21875,-7.234375 5,-14.453125 0.25,-0.320313 0.359375,-0.566406 0.328125,-0.734375 -0.02344,-0.08203 -0.117188,-0.109375 -0.28125,-0.07813 l -0.296875,0.0625 -7.875,2.890625 c -0.585937,0.117188 -1.023437,0.460938 -1.3125,1.03125 -4.125,8.617188 -6.449219,13.710938 -6.96875,15.28125 -0.042969,0.523438 -0.28125,0.824219 -0.71875,0.90625 -0.4375,0.085938 -1.03125,-0.140625 -1.78125,-0.671875 -0.742187,-0.539058 -1.1875,-1.222651 -1.34375,-2.04687 -0.15625,-0.832031 0.109375,-2.460938 0.796875,-4.890625 0.6875,-2.4375 1.503906,-4.503906 2.453125,-6.203125 0.144531,-0.332031 0.203125,-0.582031 0.171875,-0.75 C 5.0625,-15.882812 4.898438,-15.9375 4.609375,-15.875 l -2.96875,0.421875 c -0.71875,0.08594 -1.847656,-0.363281 -3.390625,-1.34375 -1.539062,-0.976563 -2.398438,-1.945313 -2.578125,-2.90625 -0.0625,-0.363281 0.117187,-0.585937 0.53125,-0.671875 3.054687,-0.238281 5.109375,-0.457031 6.171875,-0.65625 1.0625,-0.195312 3.445312,-0.988281 7.15625,-2.375 0.363281,-0.1875 0.789062,-0.695312 1.28125,-1.53125 10.15625,-15.4375 16.003906,-23.300781 17.546875,-23.59375 0.25,-0.03906 0.609375,0.109375 1.078125,0.453125 0.46875,0.34375 0.722656,0.632813 0.765625,0.859375 0.03906,0.230469 0,0.4375 -0.125,0.625 -6.8125,10.949219 -10.480469,16.871094 -11,17.765625 -0.523437,0.898437 -0.757813,1.480469 -0.703125,1.75 0.05078,0.273437 0.304688,0.359375 0.765625,0.265625 z m 0,0"
           id="path108" />
      </g>
    </g>
  </g>
  <g
     fill="#253a34"
     fill-opacity="1"
     id="g114"
     transform="translate(-14.591026,-40.727703)"
     style="fill:#ffffff;fill-opacity:1">
    <g
       transform="translate(67.313115,117.51781)"
       id="g113"
       style="fill:#ffffff;fill-opacity:1">
      <g
         id="g112"
         style="fill:#ffffff;fill-opacity:1">
        <path
           d="M 23.703125,-5.734375 V 0 H 2.625 v -26.25 h 20.59375 v 5.734375 h -13.25 v 4.421875 h 11.671875 v 5.5625 H 9.96875 v 4.796875 z m 0,0"
           id="path111"
           style="fill:#ffffff;fill-opacity:1" />
      </g>
    </g>
  </g>
  <g
     fill="#253a34"
     fill-opacity="1"
     id="g117"
     transform="translate(-14.591026,-40.727703)">
    <g
       transform="translate(92.506158,117.51781)"
       id="g116">
      <g
         id="g115">
        <path
           d="m 14.734375,0.53125 c -3.898437,0 -6.929687,-1.0625 -9.09375,-3.1875 -2.15625,-2.125 -3.234375,-5.140625 -3.234375,-9.046875 V -26.25 h 7.421875 v 14.328125 c 0,4.199219 1.660156,6.296875 4.984375,6.296875 3.300781,0 4.953125,-2.097656 4.953125,-6.296875 V -26.25 h 7.3125 v 14.546875 c 0,3.90625 -1.085937,6.921875 -3.25,9.046875 -2.15625,2.125 -5.1875,3.1875 -9.09375,3.1875 z m 0,0"
           id="path114"
           style="fill:#ffffff;fill-opacity:1" />
      </g>
    </g>
  </g>
  <g
     fill="#253a34"
     fill-opacity="1"
     id="g120"
     transform="translate(-14.591026,-40.727703)"
     style="fill:#ffffff;fill-opacity:1">
    <g
       transform="translate(121.97303,117.51781)"
       id="g119"
       style="fill:#ffffff;fill-opacity:1">
      <g
         id="g118"
         style="fill:#ffffff;fill-opacity:1">
        <path
           d="M 14.09375,-6.96875 H 10.046875 V 0 H 2.625 v -26.25 h 12 c 2.375,0 4.4375,0.398438 6.1875,1.1875 1.75,0.78125 3.097656,1.90625 4.046875,3.375 0.945313,1.460938 1.421875,3.179688 1.421875,5.15625 0,1.898438 -0.445312,3.554688 -1.328125,4.96875 -0.886719,1.40625 -2.152344,2.511719 -3.796875,3.3125 L 26.8125,0 h -7.953125 z m 4.6875,-9.5625 c 0,-1.226562 -0.386719,-2.179688 -1.15625,-2.859375 -0.773438,-0.675781 -1.921875,-1.015625 -3.453125,-1.015625 h -4.125 v 7.6875 h 4.125 c 1.53125,0 2.679687,-0.328125 3.453125,-0.984375 0.769531,-0.664063 1.15625,-1.609375 1.15625,-2.828125 z m 0,0"
           id="path117"
           style="fill:#ffffff;fill-opacity:1" />
      </g>
    </g>
  </g>
  <g
     fill="#253a34"
     fill-opacity="1"
     id="g123"
     transform="translate(-14.591026,-40.727703)"
     style="fill:#ffffff;fill-opacity:1">
    <g
       transform="translate(149.71537,117.51781)"
       id="g122"
       style="fill:#ffffff;fill-opacity:1">
      <g
         id="g121"
         style="fill:#ffffff;fill-opacity:1">
        <path
           d="M 15.859375,0.53125 C 13.085938,0.53125 10.59375,-0.0546875 8.375,-1.234375 6.164062,-2.410156 4.429688,-4.035156 3.171875,-6.109375 1.910156,-8.179688 1.28125,-10.519531 1.28125,-13.125 c 0,-2.601562 0.628906,-4.941406 1.890625,-7.015625 1.257813,-2.070313 2.992187,-3.695313 5.203125,-4.875 2.21875,-1.175781 4.710938,-1.765625 7.484375,-1.765625 2.78125,0 5.273437,0.589844 7.484375,1.765625 2.207031,1.179687 3.941406,2.804687 5.203125,4.875 1.269531,2.074219 1.90625,4.414063 1.90625,7.015625 0,2.605469 -0.636719,4.945312 -1.90625,7.015625 -1.261719,2.074219 -2.996094,3.699219 -5.203125,4.875 -2.210938,1.1796875 -4.703125,1.765625 -7.484375,1.765625 z m 0,-6.15625 c 1.320313,0 2.519531,-0.3125 3.59375,-0.9375 1.082031,-0.625 1.9375,-1.503906 2.5625,-2.640625 0.625,-1.132813 0.9375,-2.441406 0.9375,-3.921875 0,-1.476562 -0.3125,-2.785156 -0.9375,-3.921875 -0.625,-1.132813 -1.480469,-2.015625 -2.5625,-2.640625 -1.074219,-0.625 -2.273437,-0.9375 -3.59375,-0.9375 -1.324219,0 -2.523437,0.3125 -3.59375,0.9375 -1.074219,0.625 -1.921875,1.507812 -2.546875,2.640625 -0.625,1.136719 -0.9375,2.445313 -0.9375,3.921875 0,1.480469 0.3125,2.789062 0.9375,3.921875 0.625,1.136719 1.472656,2.015625 2.546875,2.640625 1.070313,0.625 2.269531,0.9375 3.59375,0.9375 z m 0,0"
           id="path120"
           style="fill:#ffffff;fill-opacity:1" />
      </g>
    </g>
  </g>
  <g
     fill="#253a34"
     fill-opacity="1"
     id="g126"
     transform="translate(-14.591026,-40.727703)"
     style="fill:#ffffff;fill-opacity:1">
    <g
       transform="translate(181.43161,117.51781)"
       id="g125"
       style="fill:#ffffff;fill-opacity:1">
      <g
         id="g124"
         style="fill:#ffffff;fill-opacity:1">
        <path
           d="m 14.625,-26.25 c 2.375,0 4.4375,0.398438 6.1875,1.1875 1.75,0.78125 3.097656,1.90625 4.046875,3.375 0.945313,1.460938 1.421875,3.179688 1.421875,5.15625 0,1.96875 -0.476562,3.683594 -1.421875,5.140625 C 23.910156,-9.941406 22.5625,-8.820312 20.8125,-8.03125 19.0625,-7.25 17,-6.859375 14.625,-6.859375 H 10.046875 V 0 H 2.625 v -26.25 z m -0.453125,13.53125 c 1.53125,0 2.679687,-0.328125 3.453125,-0.984375 0.769531,-0.664063 1.15625,-1.609375 1.15625,-2.828125 0,-1.226562 -0.386719,-2.179688 -1.15625,-2.859375 -0.773438,-0.675781 -1.921875,-1.015625 -3.453125,-1.015625 h -4.125 v 7.6875 z m 0,0"
           id="path123"
           style="fill:#ffffff;fill-opacity:1" />
      </g>
    </g>
  </g>
  <g
     fill="#253a34"
     fill-opacity="1"
     id="g129"
     transform="translate(-14.591026,-40.727703)"
     style="fill:#ffffff;fill-opacity:1">
    <g
       transform="translate(209.06149,117.51781)"
       id="g128"
       style="fill:#ffffff;fill-opacity:1">
      <g
         id="g127"
         style="fill:#ffffff;fill-opacity:1">
        <path
           d="M 23.703125,-5.734375 V 0 H 2.625 v -26.25 h 20.59375 v 5.734375 h -13.25 v 4.421875 h 11.671875 v 5.5625 H 9.96875 v 4.796875 z m 0,0"
           id="path126"
           style="fill:#ffffff;fill-opacity:1" />
      </g>
    </g>
  </g>
  <g
     fill="#253a34"
     fill-opacity="1"
     id="g132"
     transform="translate(-14.591026,-40.727703)"
     style="fill:#ffffff;fill-opacity:1">
    <g
       transform="translate(234.25453,117.51781)"
       id="g131"
       style="fill:#ffffff;fill-opacity:1">
      <g
         id="g130"
         style="fill:#ffffff;fill-opacity:1">
        <path
           d="M 20.21875,-5.09375 H 9.109375 L 7.046875,0 H -0.53125 L 11.0625,-26.25 H 18.375 L 30,0 h -7.71875 z m -2.1875,-5.484375 -3.375,-8.390625 -3.375,8.390625 z m 0,0"
           id="path129"
           style="fill:#ffffff;fill-opacity:1" />
      </g>
    </g>
  </g>
  <g
     fill="#253a34"
     fill-opacity="1"
     id="g135"
     transform="translate(-14.591026,-40.727703)"
     style="fill:#ffffff;fill-opacity:1">
    <g
       transform="translate(263.7214,117.51781)"
       id="g134"
       style="fill:#ffffff;fill-opacity:1">
      <g
         id="g133"
         style="fill:#ffffff;fill-opacity:1">
        <path
           d="M 27.59375,-26.25 V 0 H 21.484375 L 9.90625,-13.984375 V 0 H 2.625 v -26.25 h 6.109375 l 11.59375,13.984375 V -26.25 Z m 0,0"
           id="path132"
           style="fill:#ffffff;fill-opacity:1" />
      </g>
    </g>
  </g>
  <g
     fill="#253a34"
     fill-opacity="1"
     id="g138"
     transform="translate(-14.591026,-40.727703)"
     style="fill:#ffffff;fill-opacity:1">
    <g
       transform="translate(67.313115,150.73601)"
       id="g137"
       style="fill:#ffffff;fill-opacity:1">
      <g
         id="g136"
         style="fill:#ffffff;fill-opacity:1">
        <path
           d="M 26.328125,0 26.25,-13.90625 19.5,-2.59375 h -3.296875 l -6.71875,-10.9375 V 0 H 2.625 v -26.25 h 6.109375 l 9.234375,15.15625 9,-15.15625 h 6.109375 L 33.15625,0 Z m 0,0"
           id="path135"
           style="fill:#ffffff;fill-opacity:1" />
      </g>
    </g>
  </g>
  <g
     fill="#253a34"
     fill-opacity="1"
     id="g141"
     transform="translate(-14.591026,-40.727703)"
     style="fill:#ffffff;fill-opacity:1">
    <g
       transform="translate(103.07824,150.73601)"
       id="g140"
       style="fill:#ffffff;fill-opacity:1">
      <g
         id="g139"
         style="fill:#ffffff;fill-opacity:1">
        <path
           d="M 23.703125,-5.734375 V 0 H 2.625 v -26.25 h 20.59375 v 5.734375 h -13.25 v 4.421875 h 11.671875 v 5.5625 H 9.96875 v 4.796875 z m 0,0"
           id="path138"
           style="fill:#ffffff;fill-opacity:1" />
      </g>
    </g>
  </g>
  <g
     fill="#253a34"
     fill-opacity="1"
     id="g144"
     transform="translate(-14.591026,-40.727703)"
     style="fill:#ffffff;fill-opacity:1">
    <g
       transform="translate(128.27129,150.73601)"
       id="g143"
       style="fill:#ffffff;fill-opacity:1">
      <g
         id="g142"
         style="fill:#ffffff;fill-opacity:1">
        <path
           d="M 23.703125,-5.734375 V 0 H 2.625 v -26.25 h 20.59375 v 5.734375 h -13.25 v 4.421875 h 11.671875 v 5.5625 H 9.96875 v 4.796875 z m 0,0"
           id="path141"
           style="fill:#ffffff;fill-opacity:1" />
      </g>
    </g>
  </g>
  <g
     fill="#253a34"
     fill-opacity="1"
     id="g147"
     transform="translate(-14.591026,-40.727703)"
     style="fill:#ffffff;fill-opacity:1">
    <g
       transform="translate(153.46433,150.73601)"
       id="g146"
       style="fill:#ffffff;fill-opacity:1">
      <g
         id="g145"
         style="fill:#ffffff;fill-opacity:1">
        <path
           d="M 8.21875,-20.359375 H 0.15625 V -26.25 h 23.5 v 5.890625 H 15.640625 V 0 H 8.21875 Z m 0,0"
           id="path144"
           style="fill:#ffffff;fill-opacity:1" />
      </g>
    </g>
  </g>
  <g
     fill="#253a34"
     fill-opacity="1"
     id="g150"
     transform="translate(-14.591026,-40.727703)"
     style="fill:#ffffff;fill-opacity:1">
    <g
       transform="translate(177.27026,150.73601)"
       id="g149"
       style="fill:#ffffff;fill-opacity:1">
      <g
         id="g148"
         style="fill:#ffffff;fill-opacity:1">
        <path
           d="M 1.796875,-13.421875 H 12.75 v 5.46875 H 1.796875 Z m 0,0"
           id="path147"
           style="fill:#ffffff;fill-opacity:1" />
      </g>
    </g>
  </g>
  <g
     fill="#253a34"
     fill-opacity="1"
     id="g153"
     transform="translate(-14.591026,-40.727703)"
     style="fill:#ffffff;fill-opacity:1">
    <g
       transform="translate(191.81624,150.73601)"
       id="g152"
       style="fill:#ffffff;fill-opacity:1">
      <g
         id="g151"
         style="fill:#ffffff;fill-opacity:1">
        <path
           d="m 14.734375,0.53125 c -3.898437,0 -6.929687,-1.0625 -9.09375,-3.1875 -2.15625,-2.125 -3.234375,-5.140625 -3.234375,-9.046875 V -26.25 h 7.421875 v 14.328125 c 0,4.199219 1.660156,6.296875 4.984375,6.296875 3.300781,0 4.953125,-2.097656 4.953125,-6.296875 V -26.25 h 7.3125 v 14.546875 c 0,3.90625 -1.085937,6.921875 -3.25,9.046875 -2.15625,2.125 -5.1875,3.1875 -9.09375,3.1875 z m 0,0"
           id="path150"
           style="fill:#ffffff;fill-opacity:1" />
      </g>
    </g>
  </g>
  <g
     fill="#253a34"
     fill-opacity="1"
     id="g156"
     transform="translate(-14.591026,-40.727703)"
     style="fill:#ffffff;fill-opacity:1">
    <g
       transform="translate(221.28311,150.73601)"
       id="g155"
       style="fill:#ffffff;fill-opacity:1">
      <g
         id="g154"
         style="fill:#ffffff;fill-opacity:1">
        <path
           d="m 14.625,-26.25 c 2.375,0 4.4375,0.398438 6.1875,1.1875 1.75,0.78125 3.097656,1.90625 4.046875,3.375 0.945313,1.460938 1.421875,3.179688 1.421875,5.15625 0,1.96875 -0.476562,3.683594 -1.421875,5.140625 C 23.910156,-9.941406 22.5625,-8.820312 20.8125,-8.03125 19.0625,-7.25 17,-6.859375 14.625,-6.859375 H 10.046875 V 0 H 2.625 v -26.25 z m -0.453125,13.53125 c 1.53125,0 2.679687,-0.328125 3.453125,-0.984375 0.769531,-0.664063 1.15625,-1.609375 1.15625,-2.828125 0,-1.226562 -0.386719,-2.179688 -1.15625,-2.859375 -0.773438,-0.675781 -1.921875,-1.015625 -3.453125,-1.015625 h -4.125 v 7.6875 z m 0,0"
           id="path153"
           style="fill:#ffffff;fill-opacity:1" />
      </g>
    </g>
  </g>
</svg>
